<?xml version="1.0" encoding="UTF-8"?>
<!-- Generator: visioncortex VTracer 0.6.5 -->
<svg version="1.1" xmlns="http://www.w3.org/2000/svg" viewBox="156 51 301 290">
<path d="M0,0 L12,0 L13,2 L13,36 L9,41 L-2,43 L-16,43 L-15,71 L-5,73 L6,76 L13,80 L18,84 L24,85 L29,90 L31,102 L41,107 L46,111 L48,117 L49,139 L49,151 L46,156 L38,163 L31,166 L30,165 L30,151 L32,146 L32,131 L30,119 L24,117 L25,150 L25,171 L21,182 L18,186 L16,186 L16,188 L4,195 L-20,201 L-57,206 L-77,209 L-110,211 L-146,211 L-168,210 L-176,208 L-183,204 L-189,197 L-194,176 L-198,149 L-200,125 L-199,112 L-195,106 L-190,100 L-182,96 L-167,92 L-140,88 L-107,85 L-12,78 L-15,76 L-54,75 L-57,70 L-60,63 L-61,62 L-79,62 L-112,65 L-138,67 L-146,68 L-147,82 L-162,86 L-189,92 L-197,96 L-206,104 L-208,107 L-208,124 L-205,148 L-201,181 L-197,206 L-193,211 L-185,214 L-164,217 L-154,218 L-131,219 L-105,219 L-83,218 L-56,214 L-41,211 L-20,207 L-5,205 L4,205 L5,207 L2,213 L-7,218 L-28,224 L-31,224 L-31,259 L-36,264 L-51,266 L-52,279 L-56,283 L-60,284 L-95,286 L-127,286 L-131,284 L-133,280 L-134,268 L-145,268 L-152,266 L-154,263 L-155,234 L-187,229 L-202,225 L-209,219 L-212,213 L-215,193 L-225,189 L-228,183 L-241,178 L-244,174 L-246,164 L-248,148 L-248,133 L-244,128 L-242,128 L-240,124 L-229,115 L-223,112 L-222,101 L-217,92 L-208,84 L-188,77 L-174,74 L-166,61 L-161,56 L-149,53 L-101,48 L-59,45 L-50,48 L-43,56 L-41,62 L-30,63 L-30,37 L-27,32 L-21,30 L-2,29 L-1,1 Z M-27,93 L-80,98 L-86,102 L-95,103 L-97,99 L-108,100 L-128,102 L-166,108 L-178,111 L-183,116 L-184,118 L-184,130 L-177,187 L-173,191 L-166,194 L-145,195 L-100,195 L-84,194 L-48,189 L-24,185 L0,180 L6,176 L7,173 L7,145 L5,104 L2,96 L-2,93 Z M-226,132 L-232,136 L-233,141 L-231,160 L-229,166 L-226,168 L-221,168 L-220,166 L-223,137 L-225,132 Z M-53,228 L-70,231 L-95,233 L-137,234 L-139,237 L-138,252 L-137,253 L-132,253 L-131,252 L-131,241 L-120,242 L-118,252 L-68,252 L-48,251 L-46,249 L-46,231 L-47,228 Z M-75,262 L-111,264 L-117,266 L-117,272 L-116,273 L-100,273 L-77,272 L-69,271 L-69,263 Z " fill="#000000" transform="translate(406,53)"/>
<path d="M0,0 L19,0 L28,3 L39,12 L45,21 L47,26 L48,39 L46,50 L41,59 L34,66 L28,69 L19,71 L0,72 L-9,82 L-18,86 L-27,87 L-41,87 L-51,83 L-58,77 L-77,79 L-89,79 L-99,74 L-105,69 L-111,59 L-113,52 L-113,42 L-109,30 L-106,27 L-102,29 L-94,34 L-95,45 L-92,54 L-85,60 L-79,62 L-68,61 L-64,58 L-62,58 L-62,56 L-60,56 L-58,48 L-58,41 L-60,34 L-65,29 L-71,26 L-77,25 L-88,28 L-90,24 L-92,24 L-92,22 L-94,22 L-96,19 L-95,14 L-85,9 L-79,8 L-62,8 L-52,13 L-47,17 L-47,19 L-45,19 L-45,21 L-40,23 L-32,24 L-24,21 L-17,11 L-15,11 L-15,9 L-5,2 Z M7,18 L-2,22 L-7,27 L-9,31 L-9,43 L-4,51 L4,56 L13,57 L23,53 L29,46 L31,42 L31,31 L25,22 L17,18 Z " fill="#000000" transform="translate(350,151)"/>
<path d="M0,0 L25,0 L30,4 L32,11 L34,52 L34,80 L32,84 L24,88 L-13,95 L-52,100 L-57,101 L-73,102 L-118,102 L-139,101 L-148,97 L-150,94 L-157,37 L-157,25 L-154,20 L-148,17 L-128,13 L-94,8 L-76,6 L-70,6 L-68,10 L-59,9 L-53,5 Z M-29,5 L-39,10 L-44,14 L-44,16 L-46,16 L-53,26 L-61,29 L-69,28 L-74,26 L-74,24 L-76,24 L-76,22 L-86,15 L-91,13 L-108,13 L-116,15 L-124,19 L-125,23 L-130,22 L-135,27 L-134,31 L-138,35 L-142,47 L-142,57 L-138,68 L-134,74 L-123,82 L-118,84 L-106,84 L-87,82 L-78,89 L-70,92 L-56,92 L-44,90 L-37,86 L-29,77 L-10,76 L1,73 L7,69 L14,61 L18,52 L19,39 L17,28 L11,18 L3,11 L-3,7 L-10,5 Z " fill="#67e8f9" transform="translate(379,146)"/>
<path d="M0,0 L18,0 L21,3 L25,13 L64,14 L68,16 L67,18 L-42,26 L-77,30 L-100,35 L-109,39 L-114,44 L-118,49 L-120,57 L-119,79 L-115,109 L-110,133 L-107,139 L-100,145 L-95,147 L-89,148 L-67,149 L-31,149 L2,147 L46,141 L62,138 L83,133 L93,127 L95,127 L95,125 L97,125 L99,121 L103,110 L106,111 L106,121 L102,131 L91,139 L84,141 L83,145 L74,145 L59,147 L38,151 L10,156 L-4,158 L-26,159 L-52,159 L-75,158 L-100,155 L-112,152 L-118,147 L-120,141 L-126,98 L-129,68 L-130,63 L-130,46 L-122,37 L-117,33 L-107,29 L-70,21 L-68,21 L-68,7 L-67,6 L-49,4 L-10,1 Z " fill="#67e8f9" transform="translate(327,114)"/>
<path d="M0,0 L6,0 L7,7 L7,21 L5,23 L-15,24 L-54,24 L-54,23 L-25,18 L-15,14 L-14,5 L-16,3 Z " fill="#67e8f9" transform="translate(353,281)"/>
<path d="M0,0 L6,1 L6,9 L-2,10 L-25,11 L-41,11 L-42,10 L-42,4 L-36,2 Z " fill="#67e8f9" transform="translate(331,315)"/>
<path d="M0,0 L2,1 L5,22 L6,35 L5,36 L-2,35 L-4,33 L-6,22 L-7,6 L-3,2 Z " fill="#FFFFFF" stroke="#FFFFFF" stroke-width="2.5" stroke-linejoin="round" stroke-linecap="round" transform="translate(180,185)"/>
<path d="M0,0 L7,0 L6,9 L-5,14 L-28,18 L-40,18 L-40,15 L-32,13 L-16,11 L-1,7 L2,2 Z " fill="#FFFFFF" stroke="#FFFFFF" stroke-width="2.5" stroke-linejoin="round" stroke-linecap="round" transform="translate(333,286)"/>
<path d="M0,0 L2,0 L2,36 L-3,41 L-4,42 L-19,43 L-20,57 L-23,60 L-25,61 L-42,63 L-66,63 L-64,61 L-29,59 L-23,57 L-22,55 L-21,42 L-20,41 L-5,39 L-1,35 Z " fill="#FFFFFF" stroke="#FFFFFF" stroke-width="2.5" stroke-linejoin="round" stroke-linecap="round" transform="translate(375,277)"/>
<path d="M0,0 L9,1 L9,10 L7,15 L7,29 L14,27 L13,30 L9,32 L4,31 L3,30 L2,35 L1,35 L0,14 Z M14,26 Z " fill="#FFFFFF" stroke="#FFFFFF" stroke-width="2.5" stroke-linejoin="round" stroke-linecap="round" transform="translate(430,189)"/>
<path d="M0,0 L1,0 L3,6 L5,13 L5,25 L2,26 L0,31 L-4,37 L-14,43 L-19,44 L-20,47 L-21,41 L-9,35 L-4,31 L0,21 Z " fill="#FFFFFF" stroke="#FFFFFF" stroke-width="2.5" stroke-linejoin="round" stroke-linecap="round" transform="translate(432,214)"/>
<path d="M0,0 L10,0 L18,4 L24,13 L24,24 L18,33 L10,38 L5,39 L-5,37 L-13,31 L-16,25 L-16,13 L-12,6 L-3,1 Z M3,1 L-8,5 L-14,12 L-15,15 L-15,23 L-12,30 L-10,30 L-10,32 L-4,36 L7,37 L17,32 L21,27 L23,23 L23,14 L19,8 L13,3 L8,1 Z " fill="#FFFFFF" stroke="#FFFFFF" stroke-width="2.5" stroke-linejoin="round" stroke-linecap="round" transform="translate(357,169)"/>
<path d="M0,0 L6,2 L7,5 L9,5 L9,7 L11,7 L14,10 L26,7 L35,10 L39,13 L38,16 L33,12 L27,10 L19,11 L12,12 L4,4 L2,3 L1,12 L6,14 L8,16 L8,30 L11,39 L7,35 L5,28 L6,18 L-3,11 L-5,8 L-4,4 Z " fill="#FFFFFF" stroke="#FFFFFF" stroke-width="2.5" stroke-linejoin="round" stroke-linecap="round" transform="translate(249,168)"/>
<path d="M0,0 L5,0 L5,2 L-12,6 L-25,11 L-34,19 L-38,27 L-39,38 L-44,41 L-52,47 L-58,52 L-64,59 L-65,74 L-66,74 L-67,61 L-66,57 L-64,57 L-62,53 L-53,44 L-42,37 L-40,25 L-35,17 L-28,10 L-21,6 L-9,3 Z " fill="#FFFFFF" stroke="#FFFFFF" stroke-width="2.5" stroke-linejoin="round" stroke-linecap="round" transform="translate(223,127)"/>
<path d="M0,0 L4,2 L7,6 L8,10 L8,17 L14,19 L22,25 L25,30 L27,57 L27,67 L22,75 L19,76 L19,78 L14,80 L20,73 L23,70 L24,67 L24,55 L23,33 L20,26 L13,22 L7,19 L5,12 L3,4 L0,2 Z " fill="#FFFFFF" stroke="#FFFFFF" stroke-width="2.5" stroke-linejoin="round" stroke-linecap="round" transform="translate(430,137)"/>
<path d="M0,0 L7,3 L9,15 L9,21 L4,22 L0,20 L-1,12 L-1,1 Z " fill="#67e8f9" transform="translate(430,169)"/>
<path d="M0,0 L6,0 L6,2 L1,3 L-12,3 L-11,28 L5,31 L12,34 L18,38 L18,40 L25,41 L26,43 L20,43 L11,36 L1,33 L-11,31 L-14,29 L-14,1 Z " fill="#FFFFFF" stroke="#FFFFFF" stroke-width="2.5" stroke-linejoin="round" stroke-linecap="round" transform="translate(404,95)"/>
<path d="M0,0 L2,0 L7,8 L11,11 L26,15 L58,20 L59,21 L59,50 L57,47 L56,22 L44,21 L23,17 L11,14 L3,7 L0,2 Z " fill="#FFFFFF" stroke="#FFFFFF" stroke-width="2.5" stroke-linejoin="round" stroke-linecap="round" transform="translate(193,266)"/>
<path d="M0,0 L13,0 L15,4 L15,39 L10,44 L9,45 L4,45 L6,43 L11,40 L12,38 L12,2 L-2,3 L-2,1 Z M-3,3 Z " fill="#FFFFFF" stroke="#FFFFFF" stroke-width="2.5" stroke-linejoin="round" stroke-linecap="round" transform="translate(406,51)"/>
<path d="M0,0 L3,2 L-23,5 L-62,5 L-60,3 L-25,2 Z " fill="#FFFFFF" stroke="#FFFFFF" stroke-width="2.5" stroke-linejoin="round" stroke-linecap="round" transform="translate(336,284)"/>
<path d="M0,0 L2,0 L5,3 L10,4 L21,4 L22,5 L23,17 L24,21 L28,22 L58,23 L58,24 L48,25 L29,25 L24,23 L21,20 L21,6 L11,7 L2,4 Z " fill="#FFFFFF" stroke="#FFFFFF" stroke-width="2.5" stroke-linejoin="round" stroke-linecap="round" transform="translate(251,316)"/>
<path d="M0,0 L1,2 L1,26 L0,28 L-9,28 L-12,25 L-18,16 L-24,12 L-28,11 L-28,9 L-22,10 L-14,16 L-14,19 L-12,19 L-10,23 L-10,26 L-2,26 L-2,2 Z " fill="#FFFFFF" stroke="#FFFFFF" stroke-width="2.5" stroke-linejoin="round" stroke-linecap="round" transform="translate(376,88)"/>
<path d="M0,0 L18,0 L17,2 L-25,5 L-45,7 L-54,7 L-52,5 L-27,3 L-22,2 Z " fill="#FFFFFF" stroke="#FFFFFF" stroke-width="2.5" stroke-linejoin="round" stroke-linecap="round" transform="translate(330,97)"/>
<path d="M0,0 L1,0 L1,28 L0,29 L-19,30 L-26,33 L-28,34 L-26,30 L-23,28 L-2,26 L-1,1 Z M-29,34 Z M-30,35 Z " fill="#FFFFFF" stroke="#FFFFFF" stroke-width="2.5" stroke-linejoin="round" stroke-linecap="round" transform="translate(404,54)"/>
<path d="M0,0 L12,0 L12,2 L-7,4 L-19,7 L-25,14 L-31,24 L-36,25 L-30,18 L-23,7 L-15,3 Z " fill="#FFFFFF" stroke="#FFFFFF" stroke-width="2.5" stroke-linejoin="round" stroke-linecap="round" transform="translate(264,103)"/>
<path d="M0,0 L7,0 L10,4 L18,5 L20,8 L21,15 L30,17 L30,18 L19,18 L17,8 L9,7 L5,5 L4,7 L1,8 L-1,1 Z " fill="#FFFFFF" stroke="#FFFFFF" stroke-width="2.5" stroke-linejoin="round" stroke-linecap="round" transform="translate(269,287)"/>
<path d="M0,0 L2,0 L4,5 L7,3 L11,4 L8,5 L8,16 L7,17 L2,17 L1,16 Z " fill="#67e8f9" transform="translate(267,289)"/>
<path d="M0,0 L4,4 L5,9 L5,16 L2,24 L0,24 L0,26 L-6,30 L-17,31 L-25,28 L-28,24 L-23,26 L-19,28 L-9,28 L-1,23 L2,18 L2,7 Z " fill="#FFFFFF" stroke="#FFFFFF" stroke-width="2.5" stroke-linejoin="round" stroke-linecap="round" transform="translate(288,183)"/>
<path d="M0,0 L1,4 L-2,9 L-10,14 L-22,18 L-29,20 L-34,20 L-33,18 L-12,12 L-3,7 Z " fill="#FFFFFF" stroke="#FFFFFF" stroke-width="2.5" stroke-linejoin="round" stroke-linecap="round" transform="translate(411,258)"/>
<path d="M0,0 L2,0 L5,23 L8,29 L19,34 L15,35 L7,31 L4,28 L2,23 L1,9 Z " fill="#FFFFFF" stroke="#FFFFFF" stroke-width="2.5" stroke-linejoin="round" stroke-linecap="round" transform="translate(157,201)"/>
<path d="M0,0 L4,2 L6,7 L16,11 L18,25 L18,31 L15,27 L14,13 L4,8 L0,2 Z " fill="#FFFFFF" stroke="#FFFFFF" stroke-width="2.5" stroke-linejoin="round" stroke-linecap="round" transform="translate(176,235)"/>
</svg>
